<?xml version="1.0"?>
<svg xmlns="http://www.w3.org/2000/svg" xmlns:xlink="http://www.w3.org/1999/xlink" xmlns:svgjs="http://svgjs.com/svgjs" version="1.1" width="512" height="512" x="0" y="0" viewBox="0 0 512 512" style="enable-background:new 0 0 512 512" xml:space="preserve" class=""><g><linearGradient xmlns="http://www.w3.org/2000/svg" id="SVGID_1_" gradientUnits="userSpaceOnUse" x1="256" x2="256" y1="512" y2="0"><stop stop-opacity="1" stop-color="#b2b2b2" offset="0"/><stop stop-opacity="1" stop-color="#656565" offset="1"/></linearGradient><linearGradient xmlns="http://www.w3.org/2000/svg" id="SVGID_2_" gradientUnits="userSpaceOnUse" x1="256" x2="256" y1="407" y2="105"><stop stop-opacity="1" stop-color="#ffffff" offset="0"/><stop stop-opacity="1" stop-color="#ffffff" offset="1"/></linearGradient><g xmlns="http://www.w3.org/2000/svg"><g><g><circle cx="256" cy="256" fill="url(#SVGID_1_)" r="256" data-original="url(#SVGID_1_)" style=""/></g></g><g><g><path d="m344.824 140.529h-45.311c-4.127-20.246-22.067-35.529-43.513-35.529s-39.386 15.283-43.513 35.529h-45.311c-14.694 0-26.647 11.953-26.647 26.647v17.765c0 4.91 3.973 8.882 8.882 8.882h213.177c4.91 0 8.882-3.973 8.882-8.882v-17.765c.001-14.694-11.952-26.647-26.646-26.647zm-113.835 0c3.679-10.317 13.446-17.765 25.011-17.765s21.332 7.448 25.011 17.765zm131.599 88.824h-12.543l1.475-17.765h-191.04l1.475 17.765h-12.543c-4.91 0-8.882 3.973-8.882 8.882s3.973 8.882 8.882 8.882h14.017l11.25 135.508c1.328 13.896 12.769 24.375 26.604 24.375h109.433c13.835 0 25.277-10.479 26.612-24.487l11.241-135.395h14.019c4.91 0 8.882-3.973 8.882-8.882.001-4.91-3.972-8.883-8.882-8.883zm-145.7 124.318c-4.644.48-9.171-3.071-9.585-8.11l-8.882-106.588c-.408-4.892 3.218-9.177 8.11-9.585 4.884-.495 9.186 3.227 9.585 8.11l8.882 106.588c.408 4.893-3.218 9.178-8.11 9.585zm47.994-8.848c0 4.91-3.973 8.883-8.882 8.883s-8.882-3.973-8.882-8.883v-106.588c0-4.91 3.973-8.882 8.882-8.882s8.882 3.973 8.882 8.882zm48.697-105.85-8.882 106.588c-.413 5.025-4.932 8.592-9.585 8.11-4.892-.407-8.518-4.692-8.11-9.585l8.882-106.588c.408-4.884 4.606-8.596 9.585-8.11 4.892.407 8.518 4.692 8.11 9.585z" fill="url(#SVGID_2_)" data-original="url(#SVGID_2_)" style=""/></g></g></g></g></svg>
