<?xml version="1.0" encoding="iso-8859-1"?>
<!-- Generator: Adobe Illustrator 19.0.0, SVG Export Plug-In . SVG Version: 6.00 Build 0)  -->
<svg version="1.1" id="Layer_1" xmlns="http://www.w3.org/2000/svg" xmlns:xlink="http://www.w3.org/1999/xlink" x="0px" y="0px"
	 viewBox="0 0 512 512" style="enable-background:new 0 0 512 512;" xml:space="preserve">
<circle style="fill:#5ED1B3;" cx="256" cy="256" r="256"/>
<path style="fill:#4BC2A2;" d="M510.8,280.4C498.5,410.4,389.1,512,256,512c-9.2,0-18.4-0.5-27.3-1.4l-96.1-96.1l246.9-265.4
	L510.8,280.4z"/>
<polygon style="fill:#F8F8F8;" points="132.6,97.6 328,97.6 379.4,149.1 379.4,414.4 132.6,414.4 "/>
<polygon style="fill:#FF8C8A;" points="132.5,97.6 328,97.6 379.5,149.1 379.5,173.8 132.5,173.8 "/>
<polygon style="fill:#EBECEC;" points="328,97.6 328,149.1 379.4,149.1 "/>
<path style="fill:#F8F8F8;" d="M150.1,158.6v-44.7h13.6l8,30.5l7.9-30.5h13.6v44.7h-8.4v-35.2l-8.8,35.2h-8.7l-8.8-35.2v35.2H150.1z
	 M202,126.1h8v4.8c1-1.6,2.4-2.9,4.2-3.9s3.7-1.5,5.9-1.5c3.8,0,7,1.5,9.6,4.4c2.6,2.9,3.9,7.1,3.9,12.3c0,5.4-1.3,9.6-4,12.6
	c-2.6,3-5.9,4.5-9.6,4.5c-1.8,0-3.4-0.4-4.9-1.1c-1.4-0.7-3-1.9-4.6-3.7v16.2H202V126.1z M210.4,141.8c0,3.7,0.7,6.4,2.2,8.1
	c1.4,1.7,3.2,2.6,5.3,2.6c2,0,3.6-0.8,5-2.4c1.3-1.6,2-4.2,2-7.9c0-3.4-0.7-5.9-2-7.6c-1.4-1.7-3-2.5-5-2.5c-2.1,0-3.8,0.8-5.2,2.4
	C211.1,136.3,210.4,138.7,210.4,141.8z M238.3,146.7l8.3-1c0.3,2.1,1,3.7,2.1,4.9c1.2,1.1,2.6,1.7,4.2,1.7c1.8,0,3.2-0.7,4.4-2
	s1.8-3.2,1.8-5.4s-0.6-3.9-1.7-5.1c-1.1-1.3-2.6-1.9-4.2-1.9c-1.1,0-2.4,0.2-3.9,0.6l1-7c2.3,0.1,4.1-0.4,5.3-1.5
	c1.2-1.1,1.8-2.5,1.8-4.3c0-1.5-0.4-2.7-1.3-3.6s-2.1-1.3-3.6-1.3s-2.7,0.5-3.8,1.5c-1,1-1.7,2.5-1.9,4.5l-7.9-1.3
	c0.5-2.7,1.4-4.9,2.5-6.5s2.7-2.9,4.6-3.8c2-0.9,4.2-1.4,6.7-1.4c4.2,0,7.6,1.3,10.1,4c2.1,2.2,3.1,4.7,3.1,7.5
	c0,3.9-2.1,7.1-6.4,9.4c2.6,0.5,4.6,1.8,6.1,3.7s2.3,4.2,2.3,6.9c0,3.9-1.4,7.3-4.3,10c-2.9,2.8-6.4,4.2-10.7,4.2
	c-4,0-7.4-1.2-10-3.5C240.2,153.5,238.7,150.5,238.3,146.7z"/>
<path style="fill:#FF8C8A;" d="M219.2,254.7c-0.3-3.7-0.3-7.6,0.2-11.5c21.9-3.9,43.7-6.4,65.6-9.9c7.1-1.1,14.3-2.5,21.3-2.9
	c1.1,10.6,1.2,21.6,2,32.3c0.8,14.7,2.2,29.1,2.6,43.9c0.3,7.9,2,15.8-0.5,24.3c-1.4,5.1-4,10.6-8.3,14.4
	c-7.8,6.7-17.7,10.7-26.3,9.8c-6-0.2-11.2-3.4-13.3-8.7c-3.3-5.6-1.7-14.5,3.4-21c9.1-12.4,27-15.9,35.1-7.4
	c-0.8-17.4-1.3-34.8-2.1-52.2c-23,4-46,8.1-68.9,12.2c-0.2,3.7,0,7.4,0.3,10.9c0.7,10.6,1.2,21.2,1.9,31.8c0.2,7,1.4,13.9-0.8,21.4
	c-1.2,5.2-4.5,10-8.3,14.2c-4.2,4.3-9.6,6.3-14.7,8c-6.1,2.1-12.3,2.1-17.4,0.2c-5-2.1-8.7-6.8-8.9-12.9c-0.6-7.2,3.6-16.2,10.6-21
	c8.9-7.1,21.7-9.2,28.1-2.6c0.4-0.3,0.9-0.5,1.4-0.8C221.1,303.1,220.3,278.8,219.2,254.7z"/>
<path style="fill:#FA7876;" d="M311.4,314.4c0.4,5.4,0.6,10.8-1,16.6c-1.4,5.1-4,10.6-8.3,14.4c-7.8,6.7-17.7,10.7-26.3,9.8
	c-6-0.2-11.2-3.4-13.3-8.7c-1.7-2.9-2.1-6.5-1.4-10.3c0.3,0.9,0.7,1.8,1.1,2.7c2.2,5.3,7.4,8.5,13.3,8.7c8.6,0.9,18.5-3.1,26.3-9.8
	c4.3-3.8,6.9-9.3,8.3-14.4C311,320.3,311.3,317.3,311.4,314.4z M298.9,265.8c-23,4-46,8.1-68.9,12.2c0,0.7-0.1,1.3-0.1,2
	c-0.2-3.2-0.4-6.4-0.2-9.7c23-4,46-8.2,68.9-12.2C301.7,328.6,301.5,324.3,298.9,265.8z M232.4,325.2c0.3,5.5,0.7,11.1-1,17
	c-1.2,5.2-4.5,10-8.3,14.2c-4.2,4.3-9.6,6.3-14.7,8c-6.1,2.1-12.3,2.1-17.4,0.2c-5-2.1-8.7-6.8-8.9-12.9c-0.1-1.4-0.1-2.9,0.2-4.4
	c1.1,4.5,4.4,7.9,8.5,9.6c5.2,1.8,11.3,1.9,17.4-0.2c5.1-1.7,10.5-3.6,14.7-8c3.8-4.1,7.1-9,8.3-14.2
	C232,331.3,232.3,328.2,232.4,325.2z"/>
<g>
</g>
<g>
</g>
<g>
</g>
<g>
</g>
<g>
</g>
<g>
</g>
<g>
</g>
<g>
</g>
<g>
</g>
<g>
</g>
<g>
</g>
<g>
</g>
<g>
</g>
<g>
</g>
<g>
</g>
</svg>
